# Blender 3.2.2
# www.blender.org
mtllib body.mtl
o Cube
v 0.000000 1.620238 -8.145191
v 0.000000 2.130583 -8.145191
v 6.000000 1.620238 -7.745366
v 0.000000 1.620238 -7.745366
v 4.566879 1.620238 -7.745366
v 0.000000 0.045243 -6.464302
v 4.566879 0.045243 -6.464302
v 6.000000 2.130583 0.560950
v 4.566879 1.620238 0.560950
v 0.000000 0.045243 0.529358
v 4.566879 0.045243 0.529358
v 6.000000 1.620238 0.560950
v 0.000000 2.130583 0.560950
v 6.012052 2.130583 -8.081790
v 6.012052 1.620238 -8.081790
v 0.000000 2.025053 -8.430578
v 0.000000 1.576081 -8.187934
v 6.013822 1.606225 -8.132156
v 6.013822 2.055197 -8.374802
v 0.003892 1.776998 -8.650947
v 0.003892 1.471521 -8.242125
v 6.015944 1.522310 -8.204173
v 6.015944 1.827787 -8.612996
v -0.092568 0.516098 -9.593107
v -0.092568 0.210621 -9.184284
v 6.032543 0.261410 -9.146334
v 6.032543 0.566887 -9.555157
v 0.000000 1.620238 8.608395
v 0.000000 2.130583 8.608395
v 6.000000 1.620238 8.208569
v 0.000000 1.620238 8.208569
v 4.566879 1.620238 8.208569
v 0.000000 0.045243 6.927504
v 4.566879 0.045243 6.927504
v 6.000000 2.130583 -0.097747
v 4.566879 1.620238 -0.097747
v 0.000000 0.045243 -0.066155
v 4.566879 0.045243 -0.066155
v 6.000000 1.620238 -0.097747
v 0.000000 2.130583 -0.097747
v 6.012052 2.130583 8.544993
v 6.012052 1.620238 8.544993
v 0.000000 2.025053 8.893782
v 0.000000 1.576081 8.651137
v 6.013822 1.606225 8.595360
v 6.013822 2.055197 8.838005
v 0.003892 1.776998 9.114150
v 0.003892 1.471521 8.705328
v 6.015944 1.522310 8.667377
v 6.015944 1.827787 9.076200
v -0.092568 0.516098 10.056311
v -0.092568 0.210621 9.647488
v 6.032543 0.261410 9.609537
v 6.032543 0.566887 10.018360
v -6.000000 1.620238 -7.745366
v -4.566879 1.620238 -7.745366
v -4.566879 0.045243 -6.464302
v -6.000000 2.130583 0.560950
v -4.566879 1.620238 0.560950
v -4.566879 0.045243 0.529358
v -6.000000 1.620238 0.560950
v -6.012052 2.130583 -8.081790
v -6.012052 1.620238 -8.081790
v -6.013822 1.606225 -8.132156
v -6.013822 2.055197 -8.374802
v -0.003892 1.776998 -8.650947
v -0.003892 1.471521 -8.242125
v -6.015944 1.522310 -8.204173
v -6.015944 1.827787 -8.612996
v 0.092568 0.516098 -9.593107
v 0.092568 0.210621 -9.184284
v -6.032543 0.261410 -9.146334
v -6.032543 0.566887 -9.555157
v -6.000000 1.620238 8.208569
v -4.566879 1.620238 8.208569
v -4.566879 0.045243 6.927504
v -6.000000 2.130583 -0.097747
v -4.566879 1.620238 -0.097747
v -4.566879 0.045243 -0.066155
v -6.000000 1.620238 -0.097747
v -6.012052 2.130583 8.544993
v -6.012052 1.620238 8.544993
v -6.013822 1.606225 8.595360
v -6.013822 2.055197 8.838005
v -0.003892 1.776998 9.114150
v -0.003892 1.471521 8.705328
v -6.015944 1.522310 8.667377
v -6.015944 1.827787 9.076200
v 0.092568 0.516098 10.056311
v 0.092568 0.210621 9.647488
v -6.032543 0.261410 9.609537
v -6.032543 0.566887 10.018360
vn -0.0000 -1.0000 -0.0000
vn 1.0000 -0.0000 -0.0000
vn -0.0000 1.0000 -0.0000
vn -0.0015 0.9379 -0.3468
vn -0.0000 -0.6310 -0.7758
vn 1.0000 -0.0000 0.0014
vn -0.0009 0.6641 -0.7476
vn -0.0028 -0.9634 0.2679
vn -1.0000 -0.0000 -0.0000
vn 1.0000 -0.0000 0.0060
vn -0.9981 0.0490 0.0366
vn -0.9994 -0.0268 -0.0200
vn 1.0000 0.0032 0.0059
vn -0.0038 -0.6513 0.7588
vn 0.0104 -0.8010 -0.5985
vn 0.9999 0.0084 0.0063
vn -0.0000 -0.5986 0.8011
vn -0.0000 0.5986 -0.8011
vn 0.0026 0.9685 0.2492
vn -0.0000 -0.6310 0.7758
vn 1.0000 -0.0000 -0.0014
vn 0.0028 0.7233 0.6905
vn -0.0028 -0.9634 -0.2679
vn 1.0000 -0.0000 -0.0060
vn -0.9981 0.0490 -0.0366
vn -0.9999 -0.0059 0.0110
vn 1.0000 0.0032 -0.0059
vn -0.0038 -0.6513 -0.7588
vn 0.0104 -0.8010 0.5985
vn 0.9999 0.0084 -0.0063
vn -0.0000 -0.5986 -0.8011
vn -0.0000 0.5986 0.8011
vn -0.0026 0.9685 -0.2492
vn -1.0000 -0.0000 0.0014
vn -0.0028 0.7233 -0.6905
vn 0.0028 -0.9634 0.2679
vn -1.0000 -0.0000 0.0060
vn 0.9981 0.0490 0.0366
vn 0.9999 -0.0059 -0.0110
vn -1.0000 0.0032 0.0059
vn 0.0038 -0.6513 0.7588
vn -0.0104 -0.8010 -0.5985
vn -0.9999 0.0084 0.0063
vn 0.0015 0.9379 0.3468
vn -1.0000 -0.0000 -0.0014
vn 0.0009 0.6641 0.7476
vn 0.0028 -0.9634 -0.2679
vn -1.0000 -0.0000 -0.0060
vn 0.9981 0.0490 -0.0366
vn 0.9994 -0.0268 0.0200
vn -1.0000 0.0032 -0.0059
vn 0.0038 -0.6513 -0.7588
vn -0.0104 -0.8010 0.5985
vn -0.9999 0.0084 -0.0063
vn 0.0026 0.9685 -0.2492
vn 0.0028 0.7233 -0.6905
vn -0.0032 -0.6955 0.7185
vn 0.9994 0.0165 0.0305
vn -0.9999 -0.0059 -0.0110
vn 0.9998 0.0154 0.0115
vn -0.0017 -0.4602 0.8878
vn -0.0015 0.9379 0.3468
vn -0.0009 0.6641 0.7476
vn -0.0032 -0.6955 -0.7185
vn 0.9994 0.0165 -0.0305
vn -0.9994 -0.0268 0.0200
vn 0.9998 0.0154 -0.0115
vn -0.0017 -0.4602 -0.8878
vn 0.0015 0.9379 -0.3468
vn 0.0009 0.6641 -0.7476
vn 0.0032 -0.6955 0.7185
vn -0.9994 0.0165 0.0305
vn 0.9994 -0.0268 -0.0200
vn -0.9998 0.0154 0.0115
vn 0.0017 -0.4602 0.8878
vn -0.0026 0.9685 0.2492
vn -0.0028 0.7233 0.6905
vn 0.0032 -0.6955 -0.7185
vn -0.9994 0.0165 -0.0305
vn 0.9999 -0.0059 0.0110
vn -0.9998 0.0154 -0.0115
vn 0.0017 -0.4602 -0.8878
vt 0.000000 0.000000
vt 0.000000 0.000000
vt 0.369125 0.750000
vt 0.000000 0.000000
vt 0.369124 0.720143
vt 0.369125 0.625000
vt 0.369125 0.720143
vt 0.000000 0.000000
vt 0.247062 0.720143
vt 0.247062 0.625000
vt 0.247062 0.720143
vt 0.247062 0.750000
vt 0.000000 0.000000
vt 0.000000 0.000000
vt 0.000000 0.000000
vt 0.000000 0.000000
vt 0.000000 0.000000
vt 0.000000 0.000000
vt 0.000000 0.000000
vt 0.000000 0.000000
vt 0.000000 0.000000
vt 0.000000 0.000000
vt 0.000000 0.000000
vt 0.000000 0.000000
vt 0.000000 0.000000
vt 0.000000 0.000000
vt 0.000000 0.000000
vt 0.000000 0.000000
vt 0.000000 0.000000
vt 0.369125 0.750000
vt 0.000000 0.000000
vt 0.369124 0.720143
vt 0.369125 0.625000
vt 0.369125 0.720143
vt 0.000000 0.000000
vt 0.247062 0.720143
vt 0.247062 0.625000
vt 0.247062 0.720143
vt 0.247062 0.750000
vt 0.000000 0.000000
vt 0.000000 0.000000
vt 0.000000 0.000000
vt 0.000000 0.000000
vt 0.000000 0.000000
vt 0.000000 0.000000
vt 0.000000 0.000000
vt 0.000000 0.000000
vt 0.000000 0.000000
vt 0.000000 0.000000
vt 0.000000 0.000000
vt 0.000000 0.000000
vt 0.000000 0.000000
vt 0.000000 0.000000
vt 0.000000 0.000000
vt 0.369125 0.750000
vt 0.369124 0.720143
vt 0.369125 0.720143
vt 0.000000 0.000000
vt 0.247062 0.720143
vt 0.247062 0.720143
vt 0.247062 0.750000
vt 0.000000 0.000000
vt 0.000000 0.000000
vt 0.000000 0.000000
vt 0.000000 0.000000
vt 0.000000 0.000000
vt 0.000000 0.000000
vt 0.000000 0.000000
vt 0.000000 0.000000
vt 0.000000 0.000000
vt 0.000000 0.000000
vt 0.000000 0.000000
vt 0.000000 0.000000
vt 0.369125 0.750000
vt 0.369124 0.720143
vt 0.369125 0.720143
vt 0.000000 0.000000
vt 0.247062 0.720143
vt 0.247062 0.720143
vt 0.247062 0.750000
vt 0.000000 0.000000
vt 0.000000 0.000000
vt 0.000000 0.000000
vt 0.000000 0.000000
vt 0.000000 0.000000
vt 0.000000 0.000000
vt 0.000000 0.000000
vt 0.000000 0.000000
vt 0.000000 0.000000
vt 0.000000 0.000000
vt 0.000000 0.000000
vt 0.000000 0.000000
s 0
usemtl Material.003
f 6/6/1 11/11/1 10/10/1
f 5/5/1 12/12/1 9/9/1
f 9/9/2 7/7/2 5/5/2
f 13/13/3 14/14/3 2/2/3
f 2/2/4 19/19/4 16/16/4
f 6/6/5 5/5/5 7/7/5
f 4/4/3 5/5/3 15/15/3
f 15/15/6 8/8/6 12/12/6
f 16/16/7 23/23/7 20/20/7
f 1/1/8 18/18/8 15/15/8
f 1/1/9 16/16/9 17/17/9
f 15/15/10 19/19/10 14/14/10
f 21/21/11 24/24/11 25/25/11
f 17/17/12 20/20/12 21/21/12
f 18/18/13 23/23/13 19/19/13
f 17/17/14 22/22/14 18/18/14
f 25/25/15 27/27/15 26/26/15
f 23/23/16 26/26/16 27/27/16
f 21/21/17 26/26/17 22/22/17
f 20/20/18 27/27/18 24/24/18
f 38/38/1 33/33/1 37/37/1
f 39/39/1 32/32/1 36/36/1
f 34/34/2 36/36/2 32/32/2
f 40/40/3 41/41/3 35/35/3
f 29/29/19 46/46/19 41/41/19
f 32/32/20 33/33/20 34/34/20
f 42/42/3 32/32/3 31/31/3
f 39/39/21 41/41/21 42/42/21
f 43/43/22 50/50/22 46/46/22
f 45/45/23 28/28/23 42/42/23
f 28/28/9 43/43/9 29/29/9
f 46/46/24 42/42/24 41/41/24
f 48/48/25 51/51/25 47/47/25
f 44/44/26 47/47/26 43/43/26
f 50/50/27 45/45/27 46/46/27
f 49/49/28 44/44/28 45/45/28
f 53/53/29 51/51/29 52/52/29
f 50/50/30 53/53/30 49/49/30
f 53/53/31 48/48/31 49/49/31
f 47/47/32 54/54/32 50/50/32
f 60/60/1 6/6/1 10/10/1
f 61/61/1 56/56/1 59/59/1
f 57/57/9 59/59/9 56/56/9
f 13/13/3 62/62/3 58/58/3
f 2/2/33 65/65/33 62/62/33
f 56/56/5 6/6/5 57/57/5
f 63/63/3 56/56/3 4/4/3
f 61/61/34 62/62/34 63/63/34
f 16/16/35 69/69/35 65/65/35
f 64/64/36 1/1/36 63/63/36
f 65/65/37 63/63/37 62/62/37
f 67/67/38 70/70/38 66/66/38
f 17/17/39 66/66/39 16/16/39
f 69/69/40 64/64/40 65/65/40
f 68/68/41 17/17/41 64/64/41
f 72/72/42 70/70/42 71/71/42
f 69/69/43 72/72/43 68/68/43
f 72/72/17 67/67/17 68/68/17
f 66/66/18 73/73/18 69/69/18
f 33/33/1 79/79/1 37/37/1
f 75/75/1 80/80/1 78/78/1
f 78/78/9 76/76/9 75/75/9
f 40/40/3 81/81/3 29/29/3
f 29/29/44 84/84/44 43/43/44
f 33/33/20 75/75/20 76/76/20
f 31/31/3 75/75/3 82/82/3
f 82/82/45 77/77/45 80/80/45
f 43/43/46 88/88/46 85/85/46
f 28/28/47 83/83/47 82/82/47
f 82/82/48 84/84/48 81/81/48
f 86/86/49 89/89/49 90/90/49
f 44/44/50 85/85/50 86/86/50
f 83/83/51 88/88/51 84/84/51
f 44/44/52 87/87/52 83/83/52
f 90/90/53 92/92/53 91/91/53
f 88/88/54 91/91/54 92/92/54
f 86/86/31 91/91/31 87/87/31
f 85/85/32 92/92/32 89/89/32
f 6/6/1 7/7/1 11/11/1
f 5/5/1 3/3/1 12/12/1
f 9/9/2 11/11/2 7/7/2
f 13/13/3 8/8/3 14/14/3
f 2/2/55 14/14/55 19/19/55
f 6/6/5 4/4/5 5/5/5
f 15/15/3 1/1/3 4/4/3
f 5/5/3 3/3/3 15/15/3
f 12/12/1 3/3/1 15/15/1
f 15/15/6 14/14/6 8/8/6
f 16/16/56 19/19/56 23/23/56
f 1/1/57 17/17/57 18/18/57
f 1/1/9 2/2/9 16/16/9
f 15/15/58 18/18/58 19/19/58
f 21/21/11 20/20/11 24/24/11
f 17/17/59 16/16/59 20/20/59
f 18/18/60 22/22/60 23/23/60
f 17/17/61 21/21/61 22/22/61
f 25/25/15 24/24/15 27/27/15
f 23/23/16 22/22/16 26/26/16
f 21/21/17 25/25/17 26/26/17
f 20/20/18 23/23/18 27/27/18
f 38/38/1 34/34/1 33/33/1
f 39/39/1 30/30/1 32/32/1
f 34/34/2 38/38/2 36/36/2
f 40/40/3 29/29/3 41/41/3
f 29/29/62 43/43/62 46/46/62
f 32/32/20 31/31/20 33/33/20
f 31/31/3 28/28/3 42/42/3
f 42/42/3 30/30/3 32/32/3
f 42/42/1 30/30/1 39/39/1
f 39/39/21 35/35/21 41/41/21
f 43/43/63 47/47/63 50/50/63
f 45/45/64 44/44/64 28/28/64
f 28/28/9 44/44/9 43/43/9
f 46/46/65 45/45/65 42/42/65
f 48/48/25 52/52/25 51/51/25
f 44/44/66 48/48/66 47/47/66
f 50/50/67 49/49/67 45/45/67
f 49/49/68 48/48/68 44/44/68
f 53/53/29 54/54/29 51/51/29
f 50/50/30 54/54/30 53/53/30
f 53/53/31 52/52/31 48/48/31
f 47/47/32 51/51/32 54/54/32
f 60/60/1 57/57/1 6/6/1
f 61/61/1 55/55/1 56/56/1
f 57/57/9 60/60/9 59/59/9
f 13/13/3 2/2/3 62/62/3
f 2/2/69 16/16/69 65/65/69
f 56/56/5 4/4/5 6/6/5
f 4/4/3 1/1/3 63/63/3
f 63/63/3 55/55/3 56/56/3
f 63/63/1 55/55/1 61/61/1
f 61/61/34 58/58/34 62/62/34
f 16/16/70 66/66/70 69/69/70
f 64/64/71 17/17/71 1/1/71
f 65/65/72 64/64/72 63/63/72
f 67/67/38 71/71/38 70/70/38
f 17/17/73 67/67/73 66/66/73
f 69/69/74 68/68/74 64/64/74
f 68/68/75 67/67/75 17/17/75
f 72/72/42 73/73/42 70/70/42
f 69/69/43 73/73/43 72/72/43
f 72/72/17 71/71/17 67/67/17
f 66/66/18 70/70/18 73/73/18
f 33/33/1 76/76/1 79/79/1
f 75/75/1 74/74/1 80/80/1
f 78/78/9 79/79/9 76/76/9
f 40/40/3 77/77/3 81/81/3
f 29/29/76 81/81/76 84/84/76
f 33/33/20 31/31/20 75/75/20
f 82/82/3 28/28/3 31/31/3
f 75/75/3 74/74/3 82/82/3
f 80/80/1 74/74/1 82/82/1
f 82/82/45 81/81/45 77/77/45
f 43/43/77 84/84/77 88/88/77
f 28/28/78 44/44/78 83/83/78
f 82/82/79 83/83/79 84/84/79
f 86/86/49 85/85/49 89/89/49
f 44/44/80 43/43/80 85/85/80
f 83/83/81 87/87/81 88/88/81
f 44/44/82 86/86/82 87/87/82
f 90/90/53 89/89/53 92/92/53
f 88/88/54 87/87/54 91/91/54
f 86/86/31 90/90/31 91/91/31
f 85/85/32 88/88/32 92/92/32
